<svg width="44" height="45" viewBox="0 0 44 45" fill="none" xmlns="http://www.w3.org/2000/svg">
<g clip-path="url(#clip0_811_7730)">
<path d="M22.0469 0C29.2941 0 35.7245 3.49715 39.7432 8.89551C36.282 5.25929 31.4006 2.99321 25.9912 2.99316C15.4945 2.99316 6.9846 11.5239 6.98438 22.0469C6.98438 32.57 15.4943 41.1016 25.9912 41.1016C31.4008 41.1015 36.282 38.8347 39.7432 35.1982C35.7245 40.5969 29.2943 44.0947 22.0469 44.0947C9.87068 44.0945 0 34.2231 0 22.0469C0.000228834 9.87082 9.87082 0.000228848 22.0469 0Z" fill="#90DCFC"/>
<path d="M26.5134 5.36914C35.7243 5.36914 43.192 12.836 43.1921 22.0469C43.1921 23.8516 42.9031 25.589 42.3728 27.2168C42.4421 26.6914 42.4792 26.1556 42.4792 25.6113C42.4792 18.8934 37.0331 13.4474 30.3152 13.4473C23.5972 13.4473 18.1511 18.8933 18.1511 25.6113C18.1513 32.3292 23.5973 37.7754 30.3152 37.7754C31.1297 37.7754 31.9254 37.6937 32.6951 37.541C30.7834 38.3044 28.6975 38.7256 26.5134 38.7256C17.3025 38.7254 9.83569 31.2578 9.83569 22.0469C9.83585 12.8361 17.3026 5.3693 26.5134 5.36914Z" fill="#4EA7EA"/>
<path d="M30.502 15.918C35.9456 15.918 40.3592 20.3308 40.3594 25.7744C40.3594 27.0147 40.1271 28.2007 39.709 29.2939C39.6163 25.3316 36.3782 22.1484 32.3936 22.1484C28.3507 22.1485 25.0732 25.4259 25.0732 29.4688C25.0734 31.8507 26.2119 33.966 27.9736 35.3027C23.7553 34.1861 20.6455 30.3439 20.6455 25.7744C20.6457 20.3309 25.0585 15.9182 30.502 15.918Z" fill="#FBD449"/>
</g>
<defs>
<clipPath id="clip0_811_7730">
<rect width="43.8667" height="44.5415" fill="white"/>
</clipPath>
</defs>
</svg>
