<svg width="171" height="45" viewBox="0 0 171 45" fill="none" xmlns="http://www.w3.org/2000/svg">
<g clip-path="url(#clip0_811_7729)">
<path d="M22.0469 0C29.2941 0 35.7245 3.49715 39.7432 8.89551C36.282 5.25929 31.4006 2.99321 25.9912 2.99316C15.4945 2.99316 6.9846 11.5239 6.98438 22.0469C6.98438 32.57 15.4943 41.1016 25.9912 41.1016C31.4008 41.1015 36.282 38.8347 39.7432 35.1982C35.7245 40.5969 29.2943 44.0947 22.0469 44.0947C9.87068 44.0945 0 34.2231 0 22.0469C0.000228834 9.87082 9.87082 0.000228848 22.0469 0Z" fill="#90DCFC"/>
<path d="M26.5134 5.36914C35.7243 5.36914 43.192 12.836 43.1921 22.0469C43.1921 23.8516 42.9031 25.589 42.3728 27.2168C42.4421 26.6914 42.4792 26.1556 42.4792 25.6113C42.4792 18.8934 37.0331 13.4474 30.3152 13.4473C23.5972 13.4473 18.1511 18.8933 18.1511 25.6113C18.1513 32.3292 23.5973 37.7754 30.3152 37.7754C31.1297 37.7754 31.9254 37.6937 32.6951 37.541C30.7834 38.3044 28.6975 38.7256 26.5134 38.7256C17.3025 38.7254 9.83569 31.2578 9.83569 22.0469C9.83585 12.8361 17.3026 5.3693 26.5134 5.36914Z" fill="#4EA7EA"/>
<path d="M30.502 15.918C35.9456 15.918 40.3592 20.3308 40.3594 25.7744C40.3594 27.0147 40.1271 28.2007 39.709 29.2939C39.6163 25.3316 36.3782 22.1484 32.3936 22.1484C28.3507 22.1485 25.0732 25.4259 25.0732 29.4688C25.0734 31.8507 26.2119 33.966 27.9736 35.3027C23.7553 34.1861 20.6455 30.3439 20.6455 25.7744C20.6457 20.3309 25.0585 15.9182 30.502 15.918Z" fill="#FBD449"/>
</g>
<path d="M65.0682 34.271V11.871H74.3802C75.6602 11.871 76.8122 12.1803 77.8362 12.799C78.8815 13.4177 79.7135 14.2603 80.3322 15.327C80.9509 16.3937 81.2602 17.5883 81.2602 18.911C81.2602 20.255 80.9509 21.471 80.3322 22.559C79.7135 23.6257 78.8815 24.479 77.8362 25.119C76.8122 25.759 75.6602 26.079 74.3802 26.079H69.2282V34.271H65.0682ZM69.2282 22.239H74.0922C74.6255 22.239 75.1055 22.0897 75.5322 21.791C75.9802 21.4923 76.3322 21.0977 76.5882 20.607C76.8655 20.1163 77.0042 19.5617 77.0042 18.943C77.0042 18.3243 76.8655 17.7803 76.5882 17.311C76.3322 16.8203 75.9802 16.4363 75.5322 16.159C75.1055 15.8603 74.6255 15.711 74.0922 15.711H69.2282V22.239ZM84.958 34.271V17.407H88.83L88.894 22.783L88.35 21.567C88.5846 20.7137 88.99 19.9457 89.566 19.263C90.142 18.5803 90.8033 18.047 91.55 17.663C92.318 17.2577 93.118 17.055 93.95 17.055C94.3126 17.055 94.654 17.087 94.974 17.151C95.3153 17.215 95.5926 17.2897 95.806 17.375L94.75 21.695C94.5153 21.567 94.2273 21.4603 93.886 21.375C93.5446 21.2897 93.2033 21.247 92.862 21.247C92.3286 21.247 91.8166 21.3537 91.326 21.567C90.8566 21.759 90.4406 22.0363 90.078 22.399C89.7153 22.7617 89.4273 23.1883 89.214 23.679C89.022 24.1483 88.926 24.6817 88.926 25.279V34.271H84.958ZM105.42 34.591C103.735 34.591 102.231 34.2177 100.908 33.471C99.5853 32.703 98.54 31.6577 97.772 30.335C97.004 29.0123 96.62 27.5083 96.62 25.823C96.62 24.1377 97.004 22.6337 97.772 21.311C98.54 19.9883 99.5853 18.9537 100.908 18.207C102.231 17.439 103.735 17.055 105.42 17.055C107.084 17.055 108.577 17.439 109.9 18.207C111.223 18.9537 112.257 19.9883 113.004 21.311C113.772 22.6337 114.156 24.1377 114.156 25.823C114.156 27.5083 113.772 29.0123 113.004 30.335C112.257 31.6577 111.223 32.703 109.9 33.471C108.577 34.2177 107.084 34.591 105.42 34.591ZM105.42 31.103C106.337 31.103 107.148 30.8683 107.852 30.399C108.577 29.9297 109.143 29.3003 109.548 28.511C109.975 27.7217 110.177 26.8257 110.156 25.823C110.177 24.799 109.975 23.8923 109.548 23.103C109.143 22.3137 108.577 21.695 107.852 21.247C107.148 20.7777 106.337 20.543 105.42 20.543C104.503 20.543 103.671 20.7777 102.924 21.247C102.199 21.695 101.633 22.3243 101.228 23.135C100.823 23.9243 100.62 24.8203 100.62 25.823C100.62 26.8257 100.823 27.7217 101.228 28.511C101.633 29.3003 102.199 29.9297 102.924 30.399C103.671 30.8683 104.503 31.103 105.42 31.103ZM122.616 34.271L115.512 17.407H119.8L124.6 30.015L123.768 30.239L128.824 17.407H133.016L125.56 34.271H122.616ZM136.118 34.623C135.35 34.623 134.753 34.399 134.326 33.951C133.921 33.503 133.718 32.8737 133.718 32.063C133.718 31.3163 133.932 30.7083 134.358 30.239C134.806 29.7483 135.393 29.503 136.118 29.503C136.886 29.503 137.473 29.727 137.878 30.175C138.305 30.6017 138.518 31.231 138.518 32.063C138.518 32.8097 138.294 33.4283 137.846 33.919C137.42 34.3883 136.844 34.623 136.118 34.623ZM148.607 34.591C147.221 34.591 145.962 34.207 144.831 33.439C143.701 32.671 142.794 31.6257 142.111 30.303C141.429 28.9803 141.087 27.4763 141.087 25.791C141.087 24.1057 141.429 22.6017 142.111 21.279C142.794 19.9563 143.722 18.9217 144.895 18.175C146.069 17.4283 147.391 17.055 148.863 17.055C149.717 17.055 150.495 17.183 151.199 17.439C151.903 17.6737 152.522 18.015 153.055 18.463C153.589 18.911 154.026 19.423 154.367 19.999C154.73 20.575 154.975 21.1937 155.103 21.855L154.239 21.631V17.407H158.207V34.271H154.207V30.239L155.135 30.079C154.986 30.655 154.709 31.2203 154.303 31.775C153.919 32.3083 153.429 32.7883 152.831 33.215C152.255 33.6203 151.605 33.951 150.879 34.207C150.175 34.463 149.418 34.591 148.607 34.591ZM149.695 31.103C150.613 31.103 151.423 30.879 152.127 30.431C152.831 29.983 153.375 29.3643 153.759 28.575C154.165 27.7643 154.367 26.8363 154.367 25.791C154.367 24.767 154.165 23.8603 153.759 23.071C153.375 22.2817 152.831 21.663 152.127 21.215C151.423 20.767 150.613 20.543 149.695 20.543C148.778 20.543 147.967 20.767 147.263 21.215C146.581 21.663 146.047 22.2817 145.663 23.071C145.279 23.8603 145.087 24.767 145.087 25.791C145.087 26.8363 145.279 27.7643 145.663 28.575C146.047 29.3643 146.581 29.983 147.263 30.431C147.967 30.879 148.778 31.103 149.695 31.103ZM163.218 34.271V17.407H167.154V34.271H163.218ZM165.138 13.823C164.349 13.823 163.73 13.631 163.282 13.247C162.856 12.8417 162.642 12.2763 162.642 11.551C162.642 10.8683 162.866 10.3137 163.314 9.887C163.762 9.46033 164.37 9.24699 165.138 9.24699C165.949 9.24699 166.568 9.44966 166.994 9.855C167.442 10.239 167.666 10.8043 167.666 11.551C167.666 12.2123 167.442 12.7563 166.994 13.183C166.546 13.6097 165.928 13.823 165.138 13.823Z" fill="#004070"/>
<defs>
<clipPath id="clip0_811_7729">
<rect width="43.8667" height="44.5415" fill="white"/>
</clipPath>
</defs>
</svg>
